<svg xmlns="http://www.w3.org/2000/svg" xmlns:xlink="http://www.w3.org/1999/xlink" xmlns:lucid="lucid" width="1748.5" height="1540"><g transform="translate(-40 -80)" lucid:page-tab-id="0_0"><path d="M0 0h1870.87v2581.67H0z" fill="#fff"/><path d="M567.28 1500h625.44v100H567.28z" fill="none"/><use xlink:href="#a" transform="matrix(1,0,0,1,567.2834645669293,1500) translate(3.6049382716050786 33.777777777777764)"/><use xlink:href="#b" transform="matrix(1,0,0,1,567.2834645669293,1500) translate(244.97530864197535 33.777777777777764)"/><use xlink:href="#c" transform="matrix(1,0,0,1,567.2834645669293,1500) translate(305.8456790123457 33.777777777777764)"/><use xlink:href="#d" transform="matrix(1,0,0,1,567.2834645669293,1500) translate(387.94444444444446 33.777777777777764)"/><use xlink:href="#e" transform="matrix(1,0,0,1,567.2834645669293,1500) translate(146.86728395061732 84.4444444444444)"/><use xlink:href="#f" transform="matrix(1,0,0,1,567.2834645669293,1500) translate(207.73765432098767 84.4444444444444)"/><use xlink:href="#g" transform="matrix(1,0,0,1,567.2834645669293,1500) translate(319.9783950617284 84.4444444444444)"/><path d="M220 106c0-3.3 2.7-6 6-6h1348c3.3 0 6 2.7 6 6v1348c0 3.3-2.7 6-6 6H226c-3.3 0-6-2.7-6-6z" stroke="#5e5e5e" stroke-width="3" fill-opacity="0"/><use xlink:href="#h" transform="matrix(1,0,0,1,228,108) translate(351.8333333333335 31.99999999999999)"/><use xlink:href="#i" transform="matrix(1,0,0,1,228,108) translate(511.5000000000001 31.99999999999999)"/><use xlink:href="#j" transform="matrix(1,0,0,1,228,108) translate(591.3888888888889 31.99999999999999)"/><use xlink:href="#k" transform="matrix(1,0,0,1,228,108) translate(853.1666666666666 31.99999999999999)"/><use xlink:href="#l" transform="matrix(1,0,0,1,228,108) translate(910.8333333333333 31.99999999999999)"/><path d="M119.75 360.95c0 10.9-8.84 19.75-19.75 19.75-10.9 0-19.75-8.84-19.75-19.75 0-10.9 8.84-19.75 19.75-19.75 10.9 0 19.75 8.84 19.75 19.75z" stroke="#5e5e5e" stroke-width="3" fill="#fff"/><path d="M100 380.7V430c0 3.32 1.44 8.27 3.2 11.07L140 499.2M100 436l-40 63.2m0-98.75h80" stroke="#5e5e5e" stroke-width="3" fill="none"/><path d="M60 347.2c0-3.3 2.7-6 6-6h68c3.3 0 6 2.7 6 6v168c0 3.32-2.7 6-6 6H66c-3.3 0-6-2.68-6-6z" fill="none"/><use xlink:href="#m" transform="matrix(1,0,0,1,-20,499.20208073331696) translate(96.60493827160494 17.77777777777778)"/><path d="M960 260c0 22.1-35.82 40-80 40s-80-17.9-80-40 35.82-40 80-40 80 17.9 80 40z" stroke="#5e5e5e" stroke-width="3" fill="#fff"/><use xlink:href="#n" transform="matrix(1,0,0,1,800,220) translate(44.90499999999999 44.4)"/><path d="M1440 431.2c0 22.1-35.82 40-80 40s-80-17.9-80-40 35.82-40 80-40 80 17.9 80 40z" stroke="#5e5e5e" stroke-width="3" fill="#fff"/><use xlink:href="#o" transform="matrix(1,0,0,1,1280,391.2020807333169) translate(19.57999999999999 44.4)"/><path d="M1361 388.7h-2v-3.83h2zm0-11.5h-2v-7.67h2zm0-15.34h-2v-7.67h2zm0-15.34h-2v-7.67h2zm0-15.33h-2v-7.68h2zm0-15.35h-2v-7.67h2zm0-15.34h-2v-7.66h2zm0-15.33h-2v-7.67h2zm-3.45-25.25l2.53 2.53.92 3.42v3.96h-2v-3.7l-.7-2.64-1.8-1.8-2.63-.7h-3.94v-2h4.2zM1341.8 261h-8.15v-2h8.14zm-16.3 0h-8.13v-2h8.14zm-16.27 0h-8.13v-2h8.13zm-16.27 0h-8.14v-2h8.14zm-119.14 0h-2.95v-2h2.95zm-11.1 0h-8.13v-2h8.13zm-16.27 0h-8.14v-2h8.15zm-16.28 0h-8.14v-2h8.14zm-16.28 0h-8.15v-2h8.14zm-16.28 0h-8.14v-2h8.14zm-16.28 0h-8.14v-2h8.14zm-16.28 0h-8.14v-2h8.14zm-16.28 0h-8.14v-2h8.14zm-16.28 0h-8.14v-2h8.14zm-16.28 0h-8.14v-2h8.14zm-16.28 0h-8.13v-2h8.14zm-16.27 0h-8.14v-2h8.14zm-16.28 0h-4.08v-2h4.07z" stroke="#5e5e5e" stroke-width=".05" fill="#5e5e5e"/><path d="M1361 389.73l-.98-.03H1359v-1.02h2z" fill="#5e5e5e"/><path d="M1361.03 389.76l-1-.03h-1.06v-1.08h2.06zm-2-1.06v.98h1l.94.03v-1zM981.2 250.68L965.42 260l15.76 9.32-1.03 1.72L961.5 260l18.67-11.04z" stroke="#5e5e5e" stroke-width=".05" fill="#5e5e5e"/><use xlink:href="#p" transform="matrix(1,0,0,1,1173.8232626399065,249.33333333333334) translate(0 14.222222222222223)"/><path d="M980 420c0 33.14-40.3 60-90 60s-90-26.86-90-60 40.3-60 90-60 90 26.86 90 60z" stroke="#5e5e5e" stroke-width="3" fill="#fff"/><use xlink:href="#q" transform="matrix(1,0,0,1,800,360) translate(53.07999999999999 51.9)"/><use xlink:href="#r" transform="matrix(1,0,0,1,800,360) translate(103.98 51.9)"/><use xlink:href="#s" transform="matrix(1,0,0,1,800,360) translate(41.07999999999999 73.5)"/><path d="M720 600c0 22.1-35.82 40-80 40s-80-17.9-80-40 35.82-40 80-40 80 17.9 80 40z" stroke="#5e5e5e" stroke-width="3" fill="#fff"/><use xlink:href="#t" transform="matrix(1,0,0,1,560,560) translate(47.07999999999999 44.4)"/><path d="M900 600c0 22.1-35.82 40-80 40s-80-17.9-80-40 35.82-40 80-40 80 17.9 80 40z" stroke="#5e5e5e" stroke-width="3" fill="#fff"/><use xlink:href="#u" transform="matrix(1,0,0,1,740,560) translate(48.10499999999999 44.4)"/><path d="M1080 600c0 22.1-35.82 40-80 40s-80-17.9-80-40 35.82-40 80-40 80 17.9 80 40z" stroke="#5e5e5e" stroke-width="3" fill="#fff"/><use xlink:href="#v" transform="matrix(1,0,0,1,920,560) translate(50.05499999999999 44.4)"/><path d="M820 557.5v-31.68c0-3.32 2.7-6 6-6h68c3.3 0 6-2.7 6-6v-8.2" stroke="#5e5e5e" stroke-width="2" fill="none"/><path d="M821 558.53l-.98-.03H819v-1.03h2z" stroke="#5e5e5e" stroke-width=".05" fill="#5e5e5e"/><path d="M900 483.1l12.73 21.5h-25.46z" stroke="#5e5e5e" stroke-width="2" fill="#fff"/><path d="M1000 557.5v-31.68c0-3.32-2.7-6-6-6h-88c-3.3 0-6-2.7-6-6v-8.2" stroke="#5e5e5e" stroke-width="2" fill="none"/><path d="M1001 558.53l-.98-.03H999v-1.03h2z" stroke="#5e5e5e" stroke-width=".05" fill="#5e5e5e"/><path d="M900 483.1l12.73 21.5h-25.46z" stroke="#5e5e5e" stroke-width="2" fill="#fff"/><path d="M640 557.5v-31.68c0-3.32 2.7-6 6-6h248c3.3 0 6-2.7 6-6v-8.2" stroke="#5e5e5e" stroke-width="2" fill="none"/><path d="M641 558.53l-.98-.03H639v-1.03h2z" stroke="#5e5e5e" stroke-width=".05" fill="#5e5e5e"/><path d="M900 483.1l12.73 21.5h-25.46z" stroke="#5e5e5e" stroke-width="2" fill="#fff"/><path d="M102.5 420h695M102.53 420H98.5" stroke="#5e5e5e" stroke-width="2" fill="none"/><path d="M798.5 419.98v.68l.02.34h-1.05v-2h1.06zM1186.55 432.2h-7.84v-2h7.85zm15.67 0h-7.84v-2h7.84zm15.68 0h-7.84v-2h7.84zm15.67 0h-7.83v-2h7.83zm15.68 0h-7.84v-2h7.85zm15.68 0h-7.84v-2h7.83zm11.75 0h-3.92v-2h3.92zM986.44 421h-3.94v-2h3.94zm15.77 0h-7.88v-2h7.9zm15.77 0h-7.88v-2h7.87zm15.77 0h-7.88v-2h7.88zm15.77 0h-7.88v-2h7.9zm15.77 0h-7.88v-2h7.87zm15.77 0h-7.88v-2h7.88z" stroke="#5e5e5e" stroke-width=".05" fill="#5e5e5e"/><path d="M982.53 421h-1.06l.03-.98v-.68l-.02-.34h1.05z" fill="#5e5e5e"/><path d="M982.55 421.02h-1.1l.03-1v-.68l-.03-.36h1.1zm-1.04-2l.02.32v.68l-.02.96h1v-1.96zM1278.5 431.2l-18.67 11.04-1.02-1.72 15.77-9.32-15.76-9.32 1.03-1.72z" stroke="#5e5e5e" stroke-width=".05" fill="#5e5e5e"/><use xlink:href="#w" transform="matrix(1,0,0,1,1083.4074226934915,414.9343736999918) translate(0 14.222222222222223)"/><path d="M1748.25 1096.76c0 10.9-8.84 19.75-19.75 19.75-10.9 0-19.75-8.84-19.75-19.74 0-10.9 8.84-19.75 19.75-19.75 10.9 0 19.75 8.85 19.75 19.76z" stroke="#5e5e5e" stroke-width="3" fill="#fff"/><path d="M1728.5 1116.5v49.3c0 3.32 1.44 8.28 3.2 11.08l36.8 58.13m-40-63.2l-40 63.2m0-98.74h80" stroke="#5e5e5e" stroke-width="3" fill="none"/><path d="M1688.5 1083c0-3.3 2.7-6 6-6h68c3.3 0 6 2.7 6 6v168c0 3.32-2.7 6-6 6h-68c-3.3 0-6-2.68-6-6z" fill="none"/><use xlink:href="#x" transform="matrix(1,0,0,1,1608.4999871170508,1235.0063046003438) translate(88.58024691358025 17.77777777777778)"/><path d="M970 1134.76c0 27.6-35.82 50-80 50s-80-22.4-80-50c0-27.62 35.82-50 80-50s80 22.38 80 50z" stroke="#5e5e5e" stroke-width="3" fill="#fff"/><use xlink:href="#y" transform="matrix(1,0,0,1,810,1084.7563046003438) translate(24.604999999999997 55.025)"/><use xlink:href="#z" transform="matrix(1,0,0,1,810,1084.7563046003438) translate(75.505 55.025)"/><use xlink:href="#A" transform="matrix(1,0,0,1,810,1084.7563046003438) translate(103.455 55.025)"/><path d="M720 1324.76c0 22.1-35.82 40-80 40s-80-17.9-80-40 35.82-40 80-40 80 17.9 80 40z" stroke="#5e5e5e" stroke-width="3" fill="#fff"/><use xlink:href="#B" transform="matrix(1,0,0,1,560,1284.7563046003438) translate(52.55499999999999 44.4)"/><path d="M900 1324.76c0 22.1-35.82 40-80 40s-80-17.9-80-40 35.82-40 80-40 80 17.9 80 40z" stroke="#5e5e5e" stroke-width="3" fill="#fff"/><use xlink:href="#u" transform="matrix(1,0,0,1,740,1284.7563046003438) translate(48.10499999999999 44.4)"/><path d="M1080 1324.76c0 22.1-35.82 40-80 40s-80-17.9-80-40 35.82-40 80-40 80 17.9 80 40z" stroke="#5e5e5e" stroke-width="3" fill="#fff"/><use xlink:href="#C" transform="matrix(1,0,0,1,920,1284.7563046003438) translate(40.10499999999999 44.4)"/><path d="M1260 1324.76c0 22.1-35.82 40-80 40s-80-17.9-80-40 35.82-40 80-40 80 17.9 80 40z" stroke="#5e5e5e" stroke-width="3" fill="#fff"/><use xlink:href="#D" transform="matrix(1,0,0,1,1100,1284.7563046003438) translate(56.055 44.4)"/><path d="M1260 600c0 22.1-35.82 40-80 40s-80-17.9-80-40 35.82-40 80-40 80 17.9 80 40z" stroke="#5e5e5e" stroke-width="3" fill="#fff"/><use xlink:href="#D" transform="matrix(1,0,0,1,1100,560) translate(56.055 44.4)"/><path d="M1687.5 1134.76h-715" stroke="#5e5e5e" stroke-width="2" fill="none"/><path d="M1691.5 1134.76h-3v1h-1.03v-2h4.03zM972.53 1135.76h-1.06l.03-.98v-.32l-.03-.7h1.06z" stroke="#5e5e5e" stroke-width=".05" fill="#5e5e5e"/><path d="M1180 1282.26v-41.5c0-3.32-2.7-6-6-6H896c-3.3 0-6-2.7-6-6v-18.02" stroke="#5e5e5e" stroke-width="2" fill="none"/><path d="M1181 1283.3l-.98-.04H1179v-1.03h2z" stroke="#5e5e5e" stroke-width=".05" fill="#5e5e5e"/><path d="M890 1188.22l12.73 21.52h-25.46z" stroke="#5e5e5e" stroke-width="2" fill="#fff"/><path d="M640 1282.26v-41.5c0-3.32 2.7-6 6-6h238c3.3 0 6-2.7 6-6v-18.02" stroke="#5e5e5e" stroke-width="2" fill="none"/><path d="M641 1283.3l-.98-.04H639v-1.03h2z" stroke="#5e5e5e" stroke-width=".05" fill="#5e5e5e"/><path d="M890 1188.22l12.73 21.52h-25.46z" stroke="#5e5e5e" stroke-width="2" fill="#fff"/><path d="M820 1282.26v-41.5c0-3.32 2.7-6 6-6h58c3.3 0 6-2.7 6-6v-18.02" stroke="#5e5e5e" stroke-width="2" fill="none"/><path d="M821 1283.3l-.98-.04H819v-1.03h2z" stroke="#5e5e5e" stroke-width=".05" fill="#5e5e5e"/><path d="M890 1188.22l12.73 21.52h-25.46z" stroke="#5e5e5e" stroke-width="2" fill="#fff"/><path d="M1000 1282.26v-41.5c0-3.32-2.7-6-6-6h-98c-3.3 0-6-2.7-6-6v-18.02" stroke="#5e5e5e" stroke-width="2" fill="none"/><path d="M1001 1283.3l-.98-.04H999v-1.03h2z" stroke="#5e5e5e" stroke-width=".05" fill="#5e5e5e"/><path d="M890 1188.22l12.73 21.52h-25.46z" stroke="#5e5e5e" stroke-width="2" fill="#fff"/><path d="M1180 557.5v-31.68c0-3.32-2.7-6-6-6H906c-3.3 0-6-2.7-6-6v-8.2" stroke="#5e5e5e" stroke-width="2" fill="none"/><path d="M1181 558.53l-.98-.03H1179v-1.03h2z" stroke="#5e5e5e" stroke-width=".05" fill="#5e5e5e"/><path d="M900 483.1l12.73 21.5h-25.46z" stroke="#5e5e5e" stroke-width="2" fill="#fff"/><path d="M891 1082.26h-2v-4.13h2zm0-12.38h-2v-8.25h2zm0-16.5h-2v-8.25h2zm0-16.5h-2v-8.25h2zm0-16.5h-2v-8.25h2zm0-16.5h-2v-8.25h2zm0-16.5h-2v-8.25h2zm0-16.5h-2v-8.25h2zm0-16.5h-2v-8.25h2zm0-16.5h-2v-8.25h2zm0-16.5h-2v-8.25h2zm8.95-25.62h-3.82l-2.64.7-1.8 1.8-.7 2.63v3.98h-2v-4.26l.92-3.4 2.53-2.54 3.42-.92h4.08zm15.8 0h-7.9v-2h7.9zm15.78 0h-7.9v-2h7.9zm15.8 0h-7.9v-2h7.9zm15.8 0h-7.9v-2h7.9zm15.78 0h-7.88v-2h7.9zm15.8 0h-7.9v-2h7.9zm15.8 0h-7.9v-2h7.9zm15.8 0h-7.9v-2h7.9zm15.8 0h-7.9v-2h7.9zm15.78 0h-7.9v-2h7.9zm15.8 0h-7.9v-2h7.9zm15.8 0h-7.9v-2h7.9zm15.78 0h-7.9v-2h7.9zm15.8 0h-7.9v-2h7.9zm15.78 0h-7.9v-2h7.9zm15.8 0h-7.9v-2h7.9zm15.8 0h-7.9v-2h7.9zm15.78 0h-7.9v-2h7.9zm15.8 0h-7.9v-2h7.9zm15.8 0h-7.9v-2h7.9zm15.78 0h-7.9v-2h7.9zm15.8 0h-7.9v-2h7.9zm15.8 0h-7.9v-2h7.9zm15.78 0h-7.9v-2h7.9zm15.8 0h-7.9v-2h7.9zm15.8 0h-7.9v-2h7.9zm15.78 0h-7.9v-2h7.9zm15.8 0h-7.9v-2h7.9zm18.84-6.87l-.92 3.4-2.53 2.53-3.42.93h-4.08v-2h3.82l2.64-.72 1.8-1.77.7-2.65v-3.85h2zm0-12.1h-2v-7.96h2zm0-36.85h-2v-2.97h2zm0-10.94h-2v-7.96h2zm0-15.92h-2v-7.97h2zm0-15.93h-2v-7.97h2zm0-15.94h-2v-7.95h2zm0-15.92h-2v-7.96h2zm0-15.93h-2v-7.97h2zm0-15.93h-2v-7.97h2zm0-15.93h-2v-7.98h2zm0-15.95h-2v-7.96h2zm0-15.93h-2v-7.96h2zm0-15.93h-2v-7.98h2zm0-15.94h-2v-7.97h2zm0-15.94h-2v-7.96h2zm0-15.93h-2v-7.97h2zm0-15.94h-2V598h2zm0-15.93h-2v-7.97h2zm0-15.93h-2v-7.97h2zm0-15.94h-2v-7.96h2zm0-15.93h-2v-7.96h2zm0-15.93h-2v-7.97h2zm0-15.93h-2v-7.97h2zm0-15.93h-2v-7.97h2zm0-15.94h-2v-3.98h2z" stroke="#5e5e5e" stroke-width=".05" fill="#5e5e5e"/><path d="M891 1083.3l-.98-.04H889v-1.03h2z" fill="#5e5e5e"/><path d="M891.02 1083.3l-1-.02h-1.04v-1.07H891zm-2-1.04v.98h1l.96.02v-1zM1371.04 491.37l-1.72 1.02-9.32-15.77-9.32 15.76-1.72-1.03L1360 472.7z" stroke="#5e5e5e" stroke-width=".05" fill="#5e5e5e"/><use xlink:href="#E" transform="matrix(1,0,0,1,1313.4074074074074,839.9470537705888) translate(0 14.222222222222223)"/><path d="M1260 1049.76c0 24.85-35.82 45-80 45s-80-20.15-80-45c0-24.86 35.82-45 80-45s80 20.14 80 45z" stroke="#5e5e5e" stroke-width="3" fill="#fff"/><use xlink:href="#F" transform="matrix(1,0,0,1,1100,1004.7563046003445) translate(27.304999999999996 36.9)"/><use xlink:href="#G" transform="matrix(1,0,0,1,1100,1004.7563046003445) translate(109.755 36.9)"/><use xlink:href="#H" transform="matrix(1,0,0,1,1100,1004.7563046003445) translate(31.079999999999995 58.5)"/><path d="M1728.5 1074.5v-18.74c0-3.32-2.7-6-6-6h-460" stroke="#5e5e5e" stroke-width="2" fill="none"/><path d="M1729.5 1075.62l-.92-.12-1.08.03v-1.05h2zM1262.53 1050.76h-1.06l.03-.98v-.27l-.03-.74h1.06zM1181 1002.26h-2v-4.13h2zm0-12.38h-2v-8.25h2zm9.02-25.62h-3.9l-2.63.7-1.8 1.8-.7 2.63v3.98h-2v-4.26l.92-3.4 2.53-2.54 3.42-.92h4.15zm16.08 0h-8.04v-2h8.04zm16.1 0h-8.05v-2h8.04zm16.07 0h-8.04v-2h8.04zm16.08 0h-8.04v-2h8.05zm16.1 0h-8.05v-2h8.04zm16.07 0h-8.04v-2h8.04zm16.08 0h-8.04v-2h8.04zm16.1 0h-8.05v-2h8.04zm16.07 0h-8.04v-2h8.04zm16.08 0h-8.04v-2h8.05zm16.1 0h-8.05v-2h8.04zm16.07 0h-8.04v-2h8.04zm13.27 0h-5.24v-2h5.23zm86.2-18.82h-2v-7.88h2zm0-15.76h-2v-7.88h2zm0-15.76h-2v-7.88h2zm0-15.76h-2v-7.88h2zm0-15.76h-2v-7.88h2zm0-15.76h-2v-7.88h2zm0-15.76h-2V843h2zm0-15.76h-2v-7.88h2zm0-15.76h-2v-7.88h2zm0-15.76h-2v-7.88h2zm0-15.76h-2v-7.87h2zm0-15.75h-2v-7.9h2zm0-15.77h-2v-7.88h2zm0-15.76h-2v-7.88h2zm0-15.76h-2v-7.87h2zm0-15.75h-2v-7.88h2zm0-15.76h-2v-7.9h2zm0-15.77h-2v-7.88h2zm0-15.76h-2v-7.88h2zm0-15.76h-2v-7.87h2zm0-15.75h-2v-7.88h2zm0-15.76h-2v-7.9h2zm0-15.77h-2v-7.88h2zm0-15.76h-2v-7.87h2zm0-15.75h-2v-7.88h2zm0-15.76h-2v-7.88h2zm0-15.76h-2v-7.88h2zm0-15.76h-2v-7.88h2zm0-15.76h-2v-7.88h2zm0-15.76h-2v-7.88h2zm0-15.76h-2v-7.88h2zm0-15.76h-2v-7.88h2zm-3.45-25.77l2.53 2.53.92 3.4v4.08h-2v-3.8l-.7-2.65-1.8-1.78-2.63-.72h-3.9v-2h4.16zm-15.62 1.07h-8.04v-2h8.03zm-16.1 0h-4v-2h4z" stroke="#5e5e5e" stroke-width=".05" fill="#5e5e5e"/><path d="M1181 1003.3l-.98-.04H1179v-1.03h2z" fill="#5e5e5e"/><path d="M1181.03 1003.3l-1-.02h-1.06v-1.07h2.06zm-2-1.04v.98h1l.94.02v-1zM1461.2 421.88l-15.77 9.32 15.76 9.32-1.03 1.72-18.67-11.04 18.67-11.04z" stroke="#5e5e5e" stroke-width=".05" fill="#5e5e5e"/><g><use xlink:href="#p" transform="matrix(1,0,0,1,1396.2878073821205,952.5896251309235) translate(0 14.222222222222223)"/></g><path d="M750 900c0 33.14-49.25 60-110 60s-110-26.86-110-60 49.25-60 110-60 110 26.86 110 60z" stroke="#5e5e5e" stroke-width="2" fill="#fff"/><g><use xlink:href="#I" transform="matrix(1,0,0,1,530,840) translate(39.67999999999999 40.65)"/><use xlink:href="#J" transform="matrix(1,0,0,1,530,840) translate(100.47999999999999 40.65)"/><use xlink:href="#K" transform="matrix(1,0,0,1,530,840) translate(119.42999999999999 40.65)"/><use xlink:href="#L" transform="matrix(1,0,0,1,530,840) translate(26.62999999999999 62.25)"/><use xlink:href="#M" transform="matrix(1,0,0,1,530,840) translate(51.62999999999999 62.25)"/><use xlink:href="#N" transform="matrix(1,0,0,1,530,840) translate(108.58 62.25)"/><use xlink:href="#O" transform="matrix(1,0,0,1,530,840) translate(79.33 83.85000000000001)"/><use xlink:href="#P" transform="matrix(1,0,0,1,530,840) translate(117.72999999999999 83.85000000000001)"/></g><path d="M641 837.18h-2v-10.8h2zm0-21.63h-2v-21.63h2zm0-32.45h-2v-21.63h2zm0-32.44h-2V730.2h2zm0-41.8h-2v-12.28h2zm0-23.1h-2v-21.63h2zm0-32.44h-2V642.5h2z" stroke="#5e5e5e" stroke-width=".05" fill="#5e5e5e"/><path d="M639.98 641.5H641v1.03h-2v-1.06z" fill="#5e5e5e"/><path d="M639.98 641.48h1.04v1.07H639v-1.1zm-.96 1.02H641v-.98h-1l-.96-.02zM651.04 820.33L640 839l-11.04-18.67 1.72-1.02 9.32 15.77 9.32-15.76z" stroke="#5e5e5e" stroke-width=".05" fill="#5e5e5e"/><g><use xlink:href="#Q" transform="matrix(1,0,0,1,590.6913580246913,708.8560184986916) translate(0 14.222222222222223)"/></g><path d="M270 680h236l24 24v96H270z" stroke="#5e5e5e" stroke-width="2" fill="#fff"/><path d="M506 680.95V704h23.05" stroke="#5e5e5e" stroke-width="2" fill="#fff"/><g><use xlink:href="#R" transform="matrix(1,0,0,1,275,685) translate(0 59.02777777777778)"/><use xlink:href="#S" transform="matrix(1,0,0,1,275,685) translate(22.160493827160494 59.02777777777778)"/><use xlink:href="#T" transform="matrix(1,0,0,1,275,685) translate(197.22222222222223 59.02777777777778)"/><use xlink:href="#U" transform="matrix(1,0,0,1,275,685) translate(222.53086419753086 59.02777777777778)"/></g><path d="M540.92 741H532v-2h8.92zm26.75 0h-17.84v-2h17.84zm26.75 0h-17.84v-2h17.84zm26.75 0h-17.84v-2h17.84zm17.83 0h-8.92v-2H639z" stroke="#5e5e5e" stroke-width=".05" fill="#5e5e5e"/><path d="M532.03 741H531v-2h1.03z" fill="#5e5e5e"/><path d="M532.05 741.02h-1.07V739h1.07zm-1.02-2V741h.97V739zM640 741h-1.03v-2H640z" stroke="#5e5e5e" stroke-width=".05" fill="#5e5e5e"/><defs><path fill="#333" d="M24-248c120-7 223 5 221 122C244-46 201 0 124 0H24v-248zM76-40c74 7 117-18 117-86 0-67-45-88-117-82v168" id="V"/><path fill="#333" d="M25-224v-37h50v37H25zM25 0v-190h50V0H25" id="W"/><path fill="#333" d="M133-34C117-15 103 5 69 4 32 3 11-16 11-54c-1-60 55-63 116-61 1-26-3-47-28-47-18 1-26 9-28 27l-52-2c7-38 36-58 82-57s74 22 75 68l1 82c-1 14 12 18 25 15v27c-30 8-71 5-69-32zm-48 3c29 0 43-24 42-57-32 0-66-3-65 30 0 17 8 27 23 27" id="X"/><path fill="#333" d="M195-6C206 82 75 100 31 46c-4-6-6-13-8-21l49-6c3 16 16 24 34 25 40 0 42-37 40-79-11 22-30 35-61 35-53 0-70-43-70-97 0-56 18-96 73-97 30 0 46 14 59 34l2-30h47zm-90-29c32 0 41-27 41-63 0-35-9-62-40-62-32 0-39 29-40 63 0 36 9 62 39 62" id="Y"/><path fill="#333" d="M135-150c-39-12-60 13-60 57V0H25l-1-190h47c2 13-1 29 3 40 6-28 27-53 61-41v41" id="Z"/><path fill="#333" d="M220-157c-53 9-28 100-34 157h-49v-107c1-27-5-49-29-50C55-147 81-57 75 0H25l-1-190h47c2 12-1 28 3 38 10-53 101-56 108 0 13-22 24-43 59-42 82 1 51 116 57 194h-49v-107c-1-25-5-48-29-50" id="aa"/><path fill="#333" d="M185-48c-13 30-37 53-82 52C43 2 14-33 14-96s30-98 90-98c62 0 83 45 84 108H66c0 31 8 55 39 56 18 0 30-7 34-22zm-45-69c5-46-57-63-70-21-2 6-4 13-4 21h74" id="ab"/><g id="a"><use transform="matrix(0.1172839506172839,0,0,0.1172839506172839,0,0)" xlink:href="#V"/><use transform="matrix(0.1172839506172839,0,0,0.1172839506172839,30.37654320987653,0)" xlink:href="#W"/><use transform="matrix(0.1172839506172839,0,0,0.1172839506172839,42.10493827160492,0)" xlink:href="#X"/><use transform="matrix(0.1172839506172839,0,0,0.1172839506172839,65.5617283950617,0)" xlink:href="#Y"/><use transform="matrix(0.1172839506172839,0,0,0.1172839506172839,91.24691358024688,0)" xlink:href="#Z"/><use transform="matrix(0.1172839506172839,0,0,0.1172839506172839,107.66666666666663,0)" xlink:href="#X"/><use transform="matrix(0.1172839506172839,0,0,0.1172839506172839,131.1234567901234,0)" xlink:href="#aa"/><use transform="matrix(0.1172839506172839,0,0,0.1172839506172839,168.65432098765427,0)" xlink:href="#aa"/><use transform="matrix(0.1172839506172839,0,0,0.1172839506172839,206.1851851851851,0)" xlink:href="#ab"/></g><path fill="#333" d="M88-194c31-1 46 15 58 34l-1-101h50l1 261h-48c-2-10 0-23-3-31C134-8 116 4 84 4 32 4 16-41 15-95c0-56 19-97 73-99zm17 164c33 0 40-30 41-66 1-37-9-64-41-64s-38 30-39 65c0 43 13 65 39 65" id="ac"/><g id="b"><use transform="matrix(0.1172839506172839,0,0,0.1172839506172839,0,0)" xlink:href="#ac"/><use transform="matrix(0.1172839506172839,0,0,0.1172839506172839,25.685185185185176,0)" xlink:href="#ab"/></g><path fill="#333" d="M190-63c-7 42-38 67-86 67-59 0-84-38-90-98-12-110 154-137 174-36l-49 2c-2-19-15-32-35-32-30 0-35 28-38 64-6 74 65 87 74 30" id="ad"/><path fill="#333" d="M137-138c1-29-70-34-71-4 15 46 118 7 119 86 1 83-164 76-172 9l43-7c4 19 20 25 44 25 33 8 57-30 24-41C81-84 22-81 20-136c-2-80 154-74 161-7" id="ae"/><g id="c"><use transform="matrix(0.1172839506172839,0,0,0.1172839506172839,0,0)" xlink:href="#ad"/><use transform="matrix(0.1172839506172839,0,0,0.1172839506172839,23.45679012345678,0)" xlink:href="#X"/><use transform="matrix(0.1172839506172839,0,0,0.1172839506172839,46.91358024691356,0)" xlink:href="#ae"/></g><path fill="#333" d="M62-158H24l-5-90h48" id="af"/><path fill="#333" d="M85 4C-2 5 27-109 22-190h50c7 57-23 150 33 157 60-5 35-97 40-157h50l1 190h-47c-2-12 1-28-3-38-12 25-28 42-61 42" id="ag"/><path fill="#333" d="M115-3C79 11 28 4 28-45v-112H4v-33h27l15-45h31v45h36v33H77v99c-1 23 16 31 38 25v30" id="ah"/><path fill="#333" d="M25 0v-261h50V0H25" id="ai"/><path fill="#333" d="M110-194c64 0 96 36 96 99 0 64-35 99-97 99-61 0-95-36-95-99 0-62 34-99 96-99zm-1 164c35 0 45-28 45-65 0-40-10-65-43-65-34 0-45 26-45 65 0 36 10 65 43 65" id="aj"/><path fill="#333" d="M135-194c87-1 58 113 63 194h-50c-7-57 23-157-34-157-59 0-34 97-39 157H25l-1-190h47c2 12-1 28 3 38 12-26 28-41 61-42" id="ak"/><g id="d"><use transform="matrix(0.1172839506172839,0,0,0.1172839506172839,0,0)" xlink:href="#ac"/><use transform="matrix(0.1172839506172839,0,0,0.1172839506172839,25.685185185185176,0)" xlink:href="#af"/><use transform="matrix(0.1172839506172839,0,0,0.1172839506172839,35.65432098765431,0)" xlink:href="#ag"/><use transform="matrix(0.1172839506172839,0,0,0.1172839506172839,61.33950617283948,0)" xlink:href="#ah"/><use transform="matrix(0.1172839506172839,0,0,0.1172839506172839,75.29629629629628,0)" xlink:href="#W"/><use transform="matrix(0.1172839506172839,0,0,0.1172839506172839,87.02469135802467,0)" xlink:href="#ai"/><use transform="matrix(0.1172839506172839,0,0,0.1172839506172839,98.75308641975306,0)" xlink:href="#W"/><use transform="matrix(0.1172839506172839,0,0,0.1172839506172839,110.48148148148145,0)" xlink:href="#ae"/><use transform="matrix(0.1172839506172839,0,0,0.1172839506172839,133.93827160493822,0)" xlink:href="#X"/><use transform="matrix(0.1172839506172839,0,0,0.1172839506172839,157.395061728395,0)" xlink:href="#ah"/><use transform="matrix(0.1172839506172839,0,0,0.1172839506172839,171.3518518518518,0)" xlink:href="#W"/><use transform="matrix(0.1172839506172839,0,0,0.1172839506172839,183.08024691358017,0)" xlink:href="#aj"/><use transform="matrix(0.1172839506172839,0,0,0.1172839506172839,208.76543209876536,0)" xlink:href="#ak"/></g><g id="e"><use transform="matrix(0.1172839506172839,0,0,0.1172839506172839,0,0)" xlink:href="#ac"/><use transform="matrix(0.1172839506172839,0,0,0.1172839506172839,25.685185185185176,0)" xlink:href="#ab"/></g><path fill="#333" d="M135-194c52 0 70 43 70 98 0 56-19 99-73 100-30 1-46-15-58-35L72 0H24l1-261h50v104c11-23 29-37 60-37zM114-30c31 0 40-27 40-66 0-37-7-63-39-63s-41 28-41 65c0 36 8 64 40 64" id="al"/><g id="f"><use transform="matrix(0.1172839506172839,0,0,0.1172839506172839,0,0)" xlink:href="#al"/><use transform="matrix(0.1172839506172839,0,0,0.1172839506172839,25.685185185185176,0)" xlink:href="#aj"/><use transform="matrix(0.1172839506172839,0,0,0.1172839506172839,51.37037037037035,0)" xlink:href="#W"/><use transform="matrix(0.1172839506172839,0,0,0.1172839506172839,63.09876543209874,0)" xlink:href="#ah"/><use transform="matrix(0.1172839506172839,0,0,0.1172839506172839,77.05555555555553,0)" xlink:href="#ab"/></g><path fill="#333" d="M114-157C55-157 80-60 75 0H25v-261h50l-1 109c12-26 28-41 61-42 86-1 58 113 63 194h-50c-7-57 23-157-34-157" id="am"/><g id="g"><use transform="matrix(0.1172839506172839,0,0,0.1172839506172839,0,0)" xlink:href="#al"/><use transform="matrix(0.1172839506172839,0,0,0.1172839506172839,25.685185185185176,0)" xlink:href="#ai"/><use transform="matrix(0.1172839506172839,0,0,0.1172839506172839,37.41358024691357,0)" xlink:href="#X"/><use transform="matrix(0.1172839506172839,0,0,0.1172839506172839,60.87037037037036,0)" xlink:href="#ak"/><use transform="matrix(0.1172839506172839,0,0,0.1172839506172839,86.55555555555553,0)" xlink:href="#ad"/><use transform="matrix(0.1172839506172839,0,0,0.1172839506172839,110.01234567901231,0)" xlink:href="#am"/><use transform="matrix(0.1172839506172839,0,0,0.1172839506172839,135.6975308641975,0)" xlink:href="#ab"/></g><path fill="#333" d="M67-125c0 54 23 88 75 88 28 0 53-7 68-21v-34h-60v-39h108v91C232-14 192 4 140 4 58 4 20-42 15-125 8-236 126-280 215-234c19 10 29 26 37 47l-47 15c-11-23-29-39-63-39-53 1-75 33-75 86" id="an"/><g id="h"><use transform="matrix(0.11111111111111108,0,0,0.11111111111111108,0,0)" xlink:href="#an"/><use transform="matrix(0.11111111111111108,0,0,0.11111111111111108,31.1111111111111,0)" xlink:href="#ab"/><use transform="matrix(0.11111111111111108,0,0,0.11111111111111108,53.333333333333314,0)" xlink:href="#ae"/><use transform="matrix(0.11111111111111108,0,0,0.11111111111111108,75.55555555555553,0)" xlink:href="#ah"/><use transform="matrix(0.11111111111111108,0,0,0.11111111111111108,88.77777777777774,0)" xlink:href="#W"/><use transform="matrix(0.11111111111111108,0,0,0.11111111111111108,99.88888888888886,0)" xlink:href="#aj"/><use transform="matrix(0.11111111111111108,0,0,0.11111111111111108,124.22222222222219,0)" xlink:href="#ak"/></g><g id="i"><use transform="matrix(0.11111111111111108,0,0,0.11111111111111108,0,0)" xlink:href="#ac"/><use transform="matrix(0.11111111111111108,0,0,0.11111111111111108,24.333333333333325,0)" xlink:href="#ab"/><use transform="matrix(0.11111111111111108,0,0,0.11111111111111108,46.55555555555554,0)" xlink:href="#ae"/></g><path fill="#333" d="M240-174c0 40-23 61-54 70L253 0h-59l-57-94H76V0H24v-248c93 4 217-23 216 74zM76-134c48-2 112 12 112-38 0-48-66-32-112-35v73" id="ao"/><path fill="#333" d="M128 0H69L1-190h53L99-40l48-150h52" id="ap"/><g id="j"><use transform="matrix(0.11111111111111108,0,0,0.11111111111111108,0,0)" xlink:href="#ao"/><use transform="matrix(0.11111111111111108,0,0,0.11111111111111108,28.777777777777768,0)" xlink:href="#ab"/><use transform="matrix(0.11111111111111108,0,0,0.11111111111111108,50.999999999999986,0)" xlink:href="#ae"/><use transform="matrix(0.11111111111111108,0,0,0.11111111111111108,73.2222222222222,0)" xlink:href="#ab"/><use transform="matrix(0.11111111111111108,0,0,0.11111111111111108,95.44444444444441,0)" xlink:href="#Z"/><use transform="matrix(0.11111111111111108,0,0,0.11111111111111108,110.99999999999997,0)" xlink:href="#ap"/><use transform="matrix(0.11111111111111108,0,0,0.11111111111111108,133.22222222222217,0)" xlink:href="#X"/><use transform="matrix(0.11111111111111108,0,0,0.11111111111111108,155.4444444444444,0)" xlink:href="#ah"/><use transform="matrix(0.11111111111111108,0,0,0.11111111111111108,168.66666666666663,0)" xlink:href="#W"/><use transform="matrix(0.11111111111111108,0,0,0.11111111111111108,179.77777777777774,0)" xlink:href="#aj"/><use transform="matrix(0.11111111111111108,0,0,0.11111111111111108,204.11111111111106,0)" xlink:href="#ak"/><use transform="matrix(0.11111111111111108,0,0,0.11111111111111108,228.44444444444437,0)" xlink:href="#ae"/></g><g id="k"><use transform="matrix(0.11111111111111108,0,0,0.11111111111111108,0,0)" xlink:href="#ac"/><use transform="matrix(0.11111111111111108,0,0,0.11111111111111108,24.333333333333325,0)" xlink:href="#ab"/></g><path fill="#333" d="M147 0H94L2-248h55l64 206c17-72 42-137 63-206h54" id="aq"/><g id="l"><use transform="matrix(0.11111111111111108,0,0,0.11111111111111108,0,0)" xlink:href="#aq"/><use transform="matrix(0.11111111111111108,0,0,0.11111111111111108,23.666666666666657,0)" xlink:href="#aj"/><use transform="matrix(0.11111111111111108,0,0,0.11111111111111108,47.999999999999986,0)" xlink:href="#ai"/><use transform="matrix(0.11111111111111108,0,0,0.11111111111111108,59.11111111111109,0)" xlink:href="#ae"/></g><path fill="#333" d="M232-93c-1 65-40 97-104 97C67 4 28-28 28-90v-158h33c8 89-33 224 67 224 102 0 64-133 71-224h33v155" id="ar"/><path fill="#333" d="M135-143c-3-34-86-38-87 0 15 53 115 12 119 90S17 21 10-45l28-5c4 36 97 45 98 0-10-56-113-15-118-90-4-57 82-63 122-42 12 7 21 19 24 35" id="as"/><path fill="#333" d="M100-194c63 0 86 42 84 106H49c0 40 14 67 53 68 26 1 43-12 49-29l28 8c-11 28-37 45-77 45C44 4 14-33 15-96c1-61 26-98 85-98zm52 81c6-60-76-77-97-28-3 7-6 17-6 28h103" id="at"/><path fill="#333" d="M114-163C36-179 61-72 57 0H25l-1-190h30c1 12-1 29 2 39 6-27 23-49 58-41v29" id="au"/><g id="m"><use transform="matrix(0.06172839506172839,0,0,0.06172839506172839,0,0)" xlink:href="#ar"/><use transform="matrix(0.06172839506172839,0,0,0.06172839506172839,15.987654320987653,0)" xlink:href="#as"/><use transform="matrix(0.06172839506172839,0,0,0.06172839506172839,27.098765432098766,0)" xlink:href="#at"/><use transform="matrix(0.06172839506172839,0,0,0.06172839506172839,39.44444444444444,0)" xlink:href="#au"/></g><path d="M135-143c-3-34-86-38-87 0 15 53 115 12 119 90S17 21 10-45l28-5c4 36 97 45 98 0-10-56-113-15-118-90-4-57 82-63 122-42 12 7 21 19 24 35" id="av"/><path d="M47-170H22l-4-78h33" id="aw"/><path d="M24-231v-30h32v30H24zM24 0v-190h32V0H24" id="ax"/><path d="M117-194c89-4 53 116 60 194h-32v-121c0-31-8-49-39-48C34-167 62-67 57 0H25l-1-190h30c1 10-1 24 2 32 11-22 29-35 61-36" id="ay"/><path d="M96-169c-40 0-48 33-48 73s9 75 48 75c24 0 41-14 43-38l32 2c-6 37-31 61-74 61-59 0-76-41-82-99-10-93 101-131 147-64 4 7 5 14 7 22l-32 3c-4-21-16-35-41-35" id="az"/><path d="M114-163C36-179 61-72 57 0H25l-1-190h30c1 12-1 29 2 39 6-27 23-49 58-41v29" id="aA"/><path d="M100-194c63 0 86 42 84 106H49c0 40 14 67 53 68 26 1 43-12 49-29l28 8c-11 28-37 45-77 45C44 4 14-33 15-96c1-61 26-98 85-98zm52 81c6-60-76-77-97-28-3 7-6 17-6 28h103" id="aB"/><g id="n"><use transform="matrix(0.05,0,0,0.05,0,0)" xlink:href="#av"/><use transform="matrix(0.05,0,0,0.05,9,0)" xlink:href="#aw"/><use transform="matrix(0.05,0,0,0.05,12.4,0)" xlink:href="#ax"/><use transform="matrix(0.05,0,0,0.05,16.35,0)" xlink:href="#ay"/><use transform="matrix(0.05,0,0,0.05,26.35,0)" xlink:href="#av"/><use transform="matrix(0.05,0,0,0.05,35.35,0)" xlink:href="#az"/><use transform="matrix(0.05,0,0,0.05,44.35,0)" xlink:href="#aA"/><use transform="matrix(0.05,0,0,0.05,50.300000000000004,0)" xlink:href="#ax"/><use transform="matrix(0.05,0,0,0.05,54.25,0)" xlink:href="#aA"/><use transform="matrix(0.05,0,0,0.05,60.20000000000002,0)" xlink:href="#aB"/></g><path d="M141-36C126-15 110 5 73 4 37 3 15-17 15-53c-1-64 63-63 125-63 3-35-9-54-41-54-24 1-41 7-42 31l-33-3c5-37 33-52 76-52 45 0 72 20 72 64v82c-1 20 7 32 28 27v20c-31 9-61-2-59-35zM48-53c0 20 12 33 32 33 41-3 63-29 60-74-43 2-92-5-92 41" id="aC"/><path d="M84 4C-5 8 30-112 23-190h32v120c0 31 7 50 39 49 72-2 45-101 50-169h31l1 190h-30c-1-10 1-25-2-33-11 22-28 36-60 37" id="aD"/><path d="M59-47c-2 24 18 29 38 22v24C64 9 27 4 27-40v-127H5v-23h24l9-43h21v43h35v23H59v120" id="aE"/><path d="M106-169C34-169 62-67 57 0H25v-261h32l-1 103c12-21 28-36 61-36 89 0 53 116 60 194h-32v-121c2-32-8-49-39-48" id="aF"/><path d="M101-234c-31-9-42 10-38 44h38v23H63V0H32v-167H5v-23h27c-7-52 17-82 69-68v24" id="aG"/><path d="M100-194c62-1 85 37 85 99 1 63-27 99-86 99S16-35 15-95c0-66 28-99 85-99zM99-20c44 1 53-31 53-75 0-43-8-75-51-75s-53 32-53 75 10 74 51 75" id="aH"/><g id="o"><use transform="matrix(0.05,0,0,0.05,0,0)" xlink:href="#aC"/><use transform="matrix(0.05,0,0,0.05,10,0)" xlink:href="#aD"/><use transform="matrix(0.05,0,0,0.05,20,0)" xlink:href="#aE"/><use transform="matrix(0.05,0,0,0.05,25,0)" xlink:href="#aF"/><use transform="matrix(0.05,0,0,0.05,35,0)" xlink:href="#aB"/><use transform="matrix(0.05,0,0,0.05,45,0)" xlink:href="#ay"/><use transform="matrix(0.05,0,0,0.05,55,0)" xlink:href="#aE"/><use transform="matrix(0.05,0,0,0.05,60,0)" xlink:href="#ax"/><use transform="matrix(0.05,0,0,0.05,63.95,0)" xlink:href="#aG"/><use transform="matrix(0.05,0,0,0.05,68.95,0)" xlink:href="#ax"/><use transform="matrix(0.05,0,0,0.05,72.9,0)" xlink:href="#az"/><use transform="matrix(0.05,0,0,0.05,81.9,0)" xlink:href="#aC"/><use transform="matrix(0.05,0,0,0.05,91.9,0)" xlink:href="#aE"/><use transform="matrix(0.05,0,0,0.05,96.9,0)" xlink:href="#ax"/><use transform="matrix(0.05,0,0,0.05,100.85000000000001,0)" xlink:href="#aH"/><use transform="matrix(0.05,0,0,0.05,110.85000000000001,0)" xlink:href="#ay"/></g><path fill="#333" d="M15-91v-56l181-69v40L49-119l147 57v40" id="aI"/><path fill="#333" d="M15-22v-40l146-57-146-57v-40l181 69v56" id="aJ"/><g id="p"><use transform="matrix(0.04938271604938272,0,0,0.04938271604938272,0,0)" xlink:href="#aI"/><use transform="matrix(0.04938271604938272,0,0,0.04938271604938272,10.370370370370372,0)" xlink:href="#aI"/><use transform="matrix(0.04938271604938272,0,0,0.04938271604938272,20.740740740740744,0)" xlink:href="#W"/><use transform="matrix(0.04938271604938272,0,0,0.04938271604938272,25.679012345679016,0)" xlink:href="#ak"/><use transform="matrix(0.04938271604938272,0,0,0.04938271604938272,36.49382716049383,0)" xlink:href="#ad"/><use transform="matrix(0.04938271604938272,0,0,0.04938271604938272,46.370370370370374,0)" xlink:href="#ai"/><use transform="matrix(0.04938271604938272,0,0,0.04938271604938272,51.308641975308646,0)" xlink:href="#ag"/><use transform="matrix(0.04938271604938272,0,0,0.04938271604938272,62.12345679012346,0)" xlink:href="#ac"/><use transform="matrix(0.04938271604938272,0,0,0.04938271604938272,72.93827160493828,0)" xlink:href="#ab"/><use transform="matrix(0.04938271604938272,0,0,0.04938271604938272,82.81481481481482,0)" xlink:href="#aJ"/><use transform="matrix(0.04938271604938272,0,0,0.04938271604938272,93.18518518518519,0)" xlink:href="#aJ"/></g><path d="M143 4C61 4 22-44 18-125c-5-107 100-154 193-111 17 8 29 25 37 43l-32 9c-13-25-37-40-76-40-61 0-88 39-88 99 0 61 29 100 91 101 35 0 62-11 79-27v-45h-74v-28h105v86C228-13 192 4 143 4" id="aK"/><path d="M100-194c63 0 86 42 84 106H49c0 40 14 67 53 68 26 1 43-12 49-29l28 8c-11 28-37 45-77 45C44 4 14-33 15-96c1-61 26-98 85-98zm52 81c6-60-76-77-97-28-3 7-6 17-6 28h103zm-74-98c8-23 27-35 38-54h36v5l-58 49H78" id="aL"/><g id="q"><use transform="matrix(0.05,0,0,0.05,0,0)" xlink:href="#aK"/><use transform="matrix(0.05,0,0,0.05,14,0)" xlink:href="#aL"/><use transform="matrix(0.05,0,0,0.05,24,0)" xlink:href="#aA"/><use transform="matrix(0.05,0,0,0.05,29.950000000000003,0)" xlink:href="#aB"/><use transform="matrix(0.05,0,0,0.05,39.95,0)" xlink:href="#aA"/></g><path d="M24 0v-261h32V0H24" id="aM"/><g id="r"><use transform="matrix(0.05,0,0,0.05,0,0)" xlink:href="#aM"/><use transform="matrix(0.05,0,0,0.05,3.95,0)" xlink:href="#aB"/><use transform="matrix(0.05,0,0,0.05,13.949999999999998,0)" xlink:href="#av"/></g><path d="M108 0H70L1-190h34L89-25l56-165h34" id="aN"/><g id="s"><use transform="matrix(0.05,0,0,0.05,0,0)" xlink:href="#aA"/><use transform="matrix(0.05,0,0,0.05,5.95,0)" xlink:href="#aL"/><use transform="matrix(0.05,0,0,0.05,15.949999999999998,0)" xlink:href="#av"/><use transform="matrix(0.05,0,0,0.05,24.95,0)" xlink:href="#aB"/><use transform="matrix(0.05,0,0,0.05,34.95,0)" xlink:href="#aA"/><use transform="matrix(0.05,0,0,0.05,40.900000000000006,0)" xlink:href="#aN"/><use transform="matrix(0.05,0,0,0.05,49.900000000000006,0)" xlink:href="#aC"/><use transform="matrix(0.05,0,0,0.05,59.900000000000006,0)" xlink:href="#aE"/><use transform="matrix(0.05,0,0,0.05,64.9,0)" xlink:href="#ax"/><use transform="matrix(0.05,0,0,0.05,68.85000000000001,0)" xlink:href="#aH"/><use transform="matrix(0.05,0,0,0.05,78.85000000000001,0)" xlink:href="#ay"/><use transform="matrix(0.05,0,0,0.05,88.85000000000001,0)" xlink:href="#av"/></g><g id="t"><use transform="matrix(0.05,0,0,0.05,0,0)" xlink:href="#aA"/><use transform="matrix(0.05,0,0,0.05,5.95,0)" xlink:href="#aB"/><use transform="matrix(0.05,0,0,0.05,15.949999999999998,0)" xlink:href="#av"/><use transform="matrix(0.05,0,0,0.05,24.95,0)" xlink:href="#aB"/><use transform="matrix(0.05,0,0,0.05,34.95,0)" xlink:href="#aA"/><use transform="matrix(0.05,0,0,0.05,40.900000000000006,0)" xlink:href="#aN"/><use transform="matrix(0.05,0,0,0.05,49.900000000000006,0)" xlink:href="#aB"/><use transform="matrix(0.05,0,0,0.05,59.900000000000006,0)" xlink:href="#aA"/></g><path d="M210-169c-67 3-38 105-44 169h-31v-121c0-29-5-50-35-48C34-165 62-65 56 0H25l-1-190h30c1 10-1 24 2 32 10-44 99-50 107 0 11-21 27-35 58-36 85-2 47 119 55 194h-31v-121c0-29-5-49-35-48" id="aO"/><path d="M85-194c31 0 48 13 60 33l-1-100h32l1 261h-30c-2-10 0-23-3-31C134-8 116 4 85 4 32 4 16-35 15-94c0-66 23-100 70-100zm9 24c-40 0-46 34-46 75 0 40 6 74 45 74 42 0 51-32 51-76 0-42-9-74-50-73" id="aP"/><g id="u"><use transform="matrix(0.05,0,0,0.05,0,0)" xlink:href="#aO"/><use transform="matrix(0.05,0,0,0.05,14.950000000000001,0)" xlink:href="#aH"/><use transform="matrix(0.05,0,0,0.05,24.950000000000003,0)" xlink:href="#aP"/><use transform="matrix(0.05,0,0,0.05,34.95,0)" xlink:href="#ax"/><use transform="matrix(0.05,0,0,0.05,38.900000000000006,0)" xlink:href="#aG"/><use transform="matrix(0.05,0,0,0.05,43.900000000000006,0)" xlink:href="#ax"/><use transform="matrix(0.05,0,0,0.05,47.85000000000001,0)" xlink:href="#aB"/><use transform="matrix(0.05,0,0,0.05,57.85,0)" xlink:href="#aA"/></g><g id="v"><use transform="matrix(0.05,0,0,0.05,0,0)" xlink:href="#aC"/><use transform="matrix(0.05,0,0,0.05,10,0)" xlink:href="#ay"/><use transform="matrix(0.05,0,0,0.05,20,0)" xlink:href="#ay"/><use transform="matrix(0.05,0,0,0.05,30,0)" xlink:href="#aD"/><use transform="matrix(0.05,0,0,0.05,40,0)" xlink:href="#aM"/><use transform="matrix(0.05,0,0,0.05,43.95,0)" xlink:href="#aB"/><use transform="matrix(0.05,0,0,0.05,53.95,0)" xlink:href="#aA"/></g><g id="w"><use transform="matrix(0.04938271604938272,0,0,0.04938271604938272,0,0)" xlink:href="#aI"/><use transform="matrix(0.04938271604938272,0,0,0.04938271604938272,10.370370370370372,0)" xlink:href="#W"/><use transform="matrix(0.04938271604938272,0,0,0.04938271604938272,15.308641975308642,0)" xlink:href="#ak"/><use transform="matrix(0.04938271604938272,0,0,0.04938271604938272,26.12345679012346,0)" xlink:href="#ad"/><use transform="matrix(0.04938271604938272,0,0,0.04938271604938272,36,0)" xlink:href="#ai"/><use transform="matrix(0.04938271604938272,0,0,0.04938271604938272,40.93827160493827,0)" xlink:href="#ag"/><use transform="matrix(0.04938271604938272,0,0,0.04938271604938272,51.75308641975309,0)" xlink:href="#ac"/><use transform="matrix(0.04938271604938272,0,0,0.04938271604938272,62.567901234567906,0)" xlink:href="#ab"/><use transform="matrix(0.04938271604938272,0,0,0.04938271604938272,72.44444444444446,0)" xlink:href="#aJ"/><use transform="matrix(0.04938271604938272,0,0,0.04938271604938272,82.81481481481482,0)" xlink:href="#aJ"/></g><path fill="#333" d="M205 0l-28-72H64L36 0H1l101-248h38L239 0h-34zm-38-99l-47-123c-12 45-31 82-46 123h93" id="aQ"/><path fill="#333" d="M85-194c31 0 48 13 60 33l-1-100h32l1 261h-30c-2-10 0-23-3-31C134-8 116 4 85 4 32 4 16-35 15-94c0-66 23-100 70-100zm9 24c-40 0-46 34-46 75 0 40 6 74 45 74 42 0 51-32 51-76 0-42-9-74-50-73" id="aR"/><path fill="#333" d="M210-169c-67 3-38 105-44 169h-31v-121c0-29-5-50-35-48C34-165 62-65 56 0H25l-1-190h30c1 10-1 24 2 32 10-44 99-50 107 0 11-21 27-35 58-36 85-2 47 119 55 194h-31v-121c0-29-5-49-35-48" id="aS"/><path fill="#333" d="M24-231v-30h32v30H24zM24 0v-190h32V0H24" id="aT"/><path fill="#333" d="M117-194c89-4 53 116 60 194h-32v-121c0-31-8-49-39-48C34-167 62-67 57 0H25l-1-190h30c1 10-1 24 2 32 11-22 29-35 61-36" id="aU"/><g id="x"><use transform="matrix(0.06172839506172839,0,0,0.06172839506172839,0,0)" xlink:href="#aQ"/><use transform="matrix(0.06172839506172839,0,0,0.06172839506172839,14.814814814814813,0)" xlink:href="#aR"/><use transform="matrix(0.06172839506172839,0,0,0.06172839506172839,27.160493827160494,0)" xlink:href="#aS"/><use transform="matrix(0.06172839506172839,0,0,0.06172839506172839,45.61728395061728,0)" xlink:href="#aT"/><use transform="matrix(0.06172839506172839,0,0,0.06172839506172839,50.49382716049382,0)" xlink:href="#aU"/></g><g id="y"><use transform="matrix(0.05,0,0,0.05,0,0)" xlink:href="#aK"/><use transform="matrix(0.05,0,0,0.05,14,0)" xlink:href="#aL"/><use transform="matrix(0.05,0,0,0.05,24,0)" xlink:href="#aA"/><use transform="matrix(0.05,0,0,0.05,29.950000000000003,0)" xlink:href="#aB"/><use transform="matrix(0.05,0,0,0.05,39.95,0)" xlink:href="#aA"/></g><g id="z"><use transform="matrix(0.05,0,0,0.05,0,0)" xlink:href="#aM"/><use transform="matrix(0.05,0,0,0.05,3.95,0)" xlink:href="#aB"/><use transform="matrix(0.05,0,0,0.05,13.949999999999998,0)" xlink:href="#av"/></g><g id="A"><use transform="matrix(0.05,0,0,0.05,0,0)" xlink:href="#aN"/><use transform="matrix(0.05,0,0,0.05,9,0)" xlink:href="#aH"/><use transform="matrix(0.05,0,0,0.05,19,0)" xlink:href="#aM"/><use transform="matrix(0.05,0,0,0.05,22.95,0)" xlink:href="#av"/></g><path d="M24-231v-30h32v30H24zM-9 49c24 4 33-6 33-30v-209h32V24c2 40-23 58-65 49V49" id="aV"/><g id="B"><use transform="matrix(0.05,0,0,0.05,0,0)" xlink:href="#aC"/><use transform="matrix(0.05,0,0,0.05,10,0)" xlink:href="#aV"/><use transform="matrix(0.05,0,0,0.05,13.949999999999998,0)" xlink:href="#aH"/><use transform="matrix(0.05,0,0,0.05,23.95,0)" xlink:href="#aD"/><use transform="matrix(0.05,0,0,0.05,33.95,0)" xlink:href="#aE"/><use transform="matrix(0.05,0,0,0.05,38.95,0)" xlink:href="#aB"/><use transform="matrix(0.05,0,0,0.05,48.95,0)" xlink:href="#aA"/></g><path d="M115-194c55 1 70 41 70 98S169 2 115 4C84 4 66-9 55-30l1 105H24l-1-265h31l2 30c10-21 28-34 59-34zm-8 174c40 0 45-34 45-75s-6-73-45-74c-42 0-51 32-51 76 0 43 10 73 51 73" id="aW"/><g id="C"><use transform="matrix(0.05,0,0,0.05,0,0)" xlink:href="#av"/><use transform="matrix(0.05,0,0,0.05,9,0)" xlink:href="#aD"/><use transform="matrix(0.05,0,0,0.05,19,0)" xlink:href="#aW"/><use transform="matrix(0.05,0,0,0.05,29,0)" xlink:href="#aW"/><use transform="matrix(0.05,0,0,0.05,39,0)" xlink:href="#aA"/><use transform="matrix(0.05,0,0,0.05,44.95,0)" xlink:href="#ax"/><use transform="matrix(0.05,0,0,0.05,48.900000000000006,0)" xlink:href="#aO"/><use transform="matrix(0.05,0,0,0.05,63.85,0)" xlink:href="#aB"/><use transform="matrix(0.05,0,0,0.05,73.85000000000001,0)" xlink:href="#aA"/></g><g id="D"><use transform="matrix(0.05,0,0,0.05,0,0)" xlink:href="#av"/><use transform="matrix(0.05,0,0,0.05,9,0)" xlink:href="#aD"/><use transform="matrix(0.05,0,0,0.05,19,0)" xlink:href="#ax"/><use transform="matrix(0.05,0,0,0.05,22.95,0)" xlink:href="#aN"/><use transform="matrix(0.05,0,0,0.05,31.950000000000003,0)" xlink:href="#aA"/><use transform="matrix(0.05,0,0,0.05,37.9,0)" xlink:href="#aB"/></g><g id="E"><use transform="matrix(0.04938271604938272,0,0,0.04938271604938272,0,0)" xlink:href="#aI"/><use transform="matrix(0.04938271604938272,0,0,0.04938271604938272,10.370370370370372,0)" xlink:href="#aI"/><use transform="matrix(0.04938271604938272,0,0,0.04938271604938272,20.740740740740744,0)" xlink:href="#W"/><use transform="matrix(0.04938271604938272,0,0,0.04938271604938272,25.679012345679016,0)" xlink:href="#ak"/><use transform="matrix(0.04938271604938272,0,0,0.04938271604938272,36.49382716049383,0)" xlink:href="#ad"/><use transform="matrix(0.04938271604938272,0,0,0.04938271604938272,46.370370370370374,0)" xlink:href="#ai"/><use transform="matrix(0.04938271604938272,0,0,0.04938271604938272,51.308641975308646,0)" xlink:href="#ag"/><use transform="matrix(0.04938271604938272,0,0,0.04938271604938272,62.12345679012346,0)" xlink:href="#ac"/><use transform="matrix(0.04938271604938272,0,0,0.04938271604938272,72.93827160493828,0)" xlink:href="#ab"/><use transform="matrix(0.04938271604938272,0,0,0.04938271604938272,82.81481481481482,0)" xlink:href="#aJ"/></g><path d="M137 0h-34L2-248h35l83 218 83-218h36" id="aX"/><g id="F"><use transform="matrix(0.05,0,0,0.05,0,0)" xlink:href="#aX"/><use transform="matrix(0.05,0,0,0.05,11.65,0)" xlink:href="#ax"/><use transform="matrix(0.05,0,0,0.05,15.600000000000001,0)" xlink:href="#av"/><use transform="matrix(0.05,0,0,0.05,24.6,0)" xlink:href="#aD"/><use transform="matrix(0.05,0,0,0.05,34.6,0)" xlink:href="#aC"/><use transform="matrix(0.05,0,0,0.05,44.6,0)" xlink:href="#aM"/><use transform="matrix(0.05,0,0,0.05,48.550000000000004,0)" xlink:href="#ax"/><use transform="matrix(0.05,0,0,0.05,52.5,0)" xlink:href="#av"/><use transform="matrix(0.05,0,0,0.05,61.5,0)" xlink:href="#aB"/><use transform="matrix(0.05,0,0,0.05,71.5,0)" xlink:href="#aA"/></g><g id="G"><use transform="matrix(0.05,0,0,0.05,0,0)" xlink:href="#aM"/><use transform="matrix(0.05,0,0,0.05,3.95,0)" xlink:href="#aB"/><use transform="matrix(0.05,0,0,0.05,13.949999999999998,0)" xlink:href="#av"/></g><g id="H"><use transform="matrix(0.05,0,0,0.05,0,0)" xlink:href="#aA"/><use transform="matrix(0.05,0,0,0.05,5.95,0)" xlink:href="#aL"/><use transform="matrix(0.05,0,0,0.05,15.949999999999998,0)" xlink:href="#av"/><use transform="matrix(0.05,0,0,0.05,24.95,0)" xlink:href="#aB"/><use transform="matrix(0.05,0,0,0.05,34.95,0)" xlink:href="#aA"/><use transform="matrix(0.05,0,0,0.05,40.900000000000006,0)" xlink:href="#aN"/><use transform="matrix(0.05,0,0,0.05,49.900000000000006,0)" xlink:href="#aC"/><use transform="matrix(0.05,0,0,0.05,59.900000000000006,0)" xlink:href="#aE"/><use transform="matrix(0.05,0,0,0.05,64.9,0)" xlink:href="#ax"/><use transform="matrix(0.05,0,0,0.05,68.85000000000001,0)" xlink:href="#aH"/><use transform="matrix(0.05,0,0,0.05,78.85000000000001,0)" xlink:href="#ay"/><use transform="matrix(0.05,0,0,0.05,88.85000000000001,0)" xlink:href="#av"/></g><g id="I"><use transform="matrix(0.05,0,0,0.05,0,0)" xlink:href="#aX"/><use transform="matrix(0.05,0,0,0.05,11,0)" xlink:href="#aB"/><use transform="matrix(0.05,0,0,0.05,21,0)" xlink:href="#aA"/><use transform="matrix(0.05,0,0,0.05,26.950000000000003,0)" xlink:href="#ax"/><use transform="matrix(0.05,0,0,0.05,30.899999999999995,0)" xlink:href="#aG"/><use transform="matrix(0.05,0,0,0.05,35.9,0)" xlink:href="#ax"/><use transform="matrix(0.05,0,0,0.05,39.85,0)" xlink:href="#aB"/><use transform="matrix(0.05,0,0,0.05,49.85,0)" xlink:href="#aA"/></g><g id="J"><use transform="matrix(0.05,0,0,0.05,0,0)" xlink:href="#aM"/><use transform="matrix(0.05,0,0,0.05,3.95,0)" xlink:href="#aB"/></g><path d="M115-194c53 0 69 39 70 98 0 66-23 100-70 100C84 3 66-7 56-30L54 0H23l1-261h32v101c10-23 28-34 59-34zm-8 174c40 0 45-34 45-75 0-40-5-75-45-74-42 0-51 32-51 76 0 43 10 73 51 73" id="aY"/><g id="K"><use transform="matrix(0.05,0,0,0.05,0,0)" xlink:href="#ay"/><use transform="matrix(0.05,0,0,0.05,10,0)" xlink:href="#aH"/><use transform="matrix(0.05,0,0,0.05,20,0)" xlink:href="#aO"/><use transform="matrix(0.05,0,0,0.05,34.95,0)" xlink:href="#aY"/><use transform="matrix(0.05,0,0,0.05,44.95,0)" xlink:href="#aA"/><use transform="matrix(0.05,0,0,0.05,50.900000000000006,0)" xlink:href="#aB"/></g><g id="L"><use transform="matrix(0.05,0,0,0.05,0,0)" xlink:href="#aP"/><use transform="matrix(0.05,0,0,0.05,10,0)" xlink:href="#aB"/></g><g id="M"><use transform="matrix(0.05,0,0,0.05,0,0)" xlink:href="#aW"/><use transform="matrix(0.05,0,0,0.05,10,0)" xlink:href="#aM"/><use transform="matrix(0.05,0,0,0.05,13.949999999999998,0)" xlink:href="#aC"/><use transform="matrix(0.05,0,0,0.05,23.95,0)" xlink:href="#az"/><use transform="matrix(0.05,0,0,0.05,32.95,0)" xlink:href="#aB"/><use transform="matrix(0.05,0,0,0.05,42.95,0)" xlink:href="#av"/></g><g id="N"><use transform="matrix(0.05,0,0,0.05,0,0)" xlink:href="#aP"/><use transform="matrix(0.05,0,0,0.05,10,0)" xlink:href="#ax"/><use transform="matrix(0.05,0,0,0.05,13.949999999999998,0)" xlink:href="#av"/><use transform="matrix(0.05,0,0,0.05,22.95,0)" xlink:href="#aW"/><use transform="matrix(0.05,0,0,0.05,32.95,0)" xlink:href="#aH"/><use transform="matrix(0.05,0,0,0.05,42.95,0)" xlink:href="#aM"/><use transform="matrix(0.05,0,0,0.05,46.900000000000006,0)" xlink:href="#ay"/><use transform="matrix(0.05,0,0,0.05,56.900000000000006,0)" xlink:href="#ax"/><use transform="matrix(0.05,0,0,0.05,60.85,0)" xlink:href="#aY"/><use transform="matrix(0.05,0,0,0.05,70.85000000000001,0)" xlink:href="#aM"/><use transform="matrix(0.05,0,0,0.05,74.80000000000001,0)" xlink:href="#aB"/></g><g id="O"><use transform="matrix(0.05,0,0,0.05,0,0)" xlink:href="#aP"/><use transform="matrix(0.05,0,0,0.05,10,0)" xlink:href="#aw"/><use transform="matrix(0.05,0,0,0.05,13.4,0)" xlink:href="#aD"/><use transform="matrix(0.05,0,0,0.05,23.4,0)" xlink:href="#ay"/></g><g id="P"><use transform="matrix(0.05,0,0,0.05,0,0)" xlink:href="#aN"/><use transform="matrix(0.05,0,0,0.05,9,0)" xlink:href="#aH"/><use transform="matrix(0.05,0,0,0.05,19,0)" xlink:href="#aM"/></g><path fill="#333" d="M144 0l-44-69L55 0H2l70-98-66-92h53l41 62 40-62h54l-67 91 71 99h-54" id="aZ"/><g id="Q"><use transform="matrix(0.04938271604938272,0,0,0.04938271604938272,0,0)" xlink:href="#aI"/><use transform="matrix(0.04938271604938272,0,0,0.04938271604938272,10.370370370370372,0)" xlink:href="#aI"/><use transform="matrix(0.04938271604938272,0,0,0.04938271604938272,20.740740740740744,0)" xlink:href="#ab"/><use transform="matrix(0.04938271604938272,0,0,0.04938271604938272,30.617283950617285,0)" xlink:href="#aZ"/><use transform="matrix(0.04938271604938272,0,0,0.04938271604938272,40.49382716049384,0)" xlink:href="#ah"/><use transform="matrix(0.04938271604938272,0,0,0.04938271604938272,46.37037037037038,0)" xlink:href="#ab"/><use transform="matrix(0.04938271604938272,0,0,0.04938271604938272,56.24691358024693,0)" xlink:href="#ak"/><use transform="matrix(0.04938271604938272,0,0,0.04938271604938272,67.06172839506173,0)" xlink:href="#ac"/><use transform="matrix(0.04938271604938272,0,0,0.04938271604938272,77.87654320987654,0)" xlink:href="#aJ"/><use transform="matrix(0.04938271604938272,0,0,0.04938271604938272,88.24691358024691,0)" xlink:href="#aJ"/></g><g id="R"><use transform="matrix(0.06172839506172839,0,0,0.06172839506172839,0,0)" xlink:href="#as"/><use transform="matrix(0.06172839506172839,0,0,0.06172839506172839,11.11111111111111,0)" xlink:href="#aT"/></g><path fill="#333" d="M87 75C49 33 22-17 22-94c0-76 28-126 65-167h31c-38 41-64 92-64 168S80 34 118 75H87" id="ba"/><path fill="#333" d="M115-194c53 0 69 39 70 98 0 66-23 100-70 100C84 3 66-7 56-30L54 0H23l1-261h32v101c10-23 28-34 59-34zm-8 174c40 0 45-34 45-75 0-40-5-75-45-74-42 0-51 32-51 76 0 43 10 73 51 73" id="bb"/><path fill="#333" d="M-5 72V49h209v23H-5" id="bc"/><path fill="#333" d="M115-194c55 1 70 41 70 98S169 2 115 4C84 4 66-9 55-30l1 105H24l-1-265h31l2 30c10-21 28-34 59-34zm-8 174c40 0 45-34 45-75s-6-73-45-74c-42 0-51 32-51 76 0 43 10 73 51 73" id="bd"/><path fill="#333" d="M24 0v-261h32V0H24" id="be"/><path fill="#333" d="M141-36C126-15 110 5 73 4 37 3 15-17 15-53c-1-64 63-63 125-63 3-35-9-54-41-54-24 1-41 7-42 31l-33-3c5-37 33-52 76-52 45 0 72 20 72 64v82c-1 20 7 32 28 27v20c-31 9-61-2-59-35zM48-53c0 20 12 33 32 33 41-3 63-29 60-74-43 2-92-5-92 41" id="bf"/><path fill="#333" d="M96-169c-40 0-48 33-48 73s9 75 48 75c24 0 41-14 43-38l32 2c-6 37-31 61-74 61-59 0-76-41-82-99-10-93 101-131 147-64 4 7 5 14 7 22l-32 3c-4-21-16-35-41-35" id="bg"/><g id="S"><use transform="matrix(0.06172839506172839,0,0,0.06172839506172839,0,0)" xlink:href="#ba"/><use transform="matrix(0.06172839506172839,0,0,0.06172839506172839,7.345679012345679,0)" xlink:href="#aU"/><use transform="matrix(0.06172839506172839,0,0,0.06172839506172839,19.691358024691358,0)" xlink:href="#bb"/><use transform="matrix(0.06172839506172839,0,0,0.06172839506172839,32.03703703703704,0)" xlink:href="#au"/><use transform="matrix(0.06172839506172839,0,0,0.06172839506172839,39.382716049382715,0)" xlink:href="#bc"/><use transform="matrix(0.06172839506172839,0,0,0.06172839506172839,51.72839506172839,0)" xlink:href="#bd"/><use transform="matrix(0.06172839506172839,0,0,0.06172839506172839,64.07407407407408,0)" xlink:href="#be"/><use transform="matrix(0.06172839506172839,0,0,0.06172839506172839,68.95061728395062,0)" xlink:href="#bf"/><use transform="matrix(0.06172839506172839,0,0,0.06172839506172839,81.2962962962963,0)" xlink:href="#bg"/><use transform="matrix(0.06172839506172839,0,0,0.06172839506172839,92.40740740740742,0)" xlink:href="#at"/><use transform="matrix(0.06172839506172839,0,0,0.06172839506172839,104.7530864197531,0)" xlink:href="#as"/><use transform="matrix(0.06172839506172839,0,0,0.06172839506172839,115.86419753086422,0)" xlink:href="#bc"/><use transform="matrix(0.06172839506172839,0,0,0.06172839506172839,128.2098765432099,0)" xlink:href="#aR"/><use transform="matrix(0.06172839506172839,0,0,0.06172839506172839,140.55555555555557,0)" xlink:href="#aT"/><use transform="matrix(0.06172839506172839,0,0,0.06172839506172839,145.4320987654321,0)" xlink:href="#as"/><use transform="matrix(0.06172839506172839,0,0,0.06172839506172839,156.54320987654322,0)" xlink:href="#bd"/></g><path fill="#333" d="M63-70H37l-4-178h34zM33 0v-35h34V0H33" id="bh"/><path fill="#333" d="M18-150v-26h174v26H18zm0 90v-26h174v26H18" id="bi"/><g id="T"><use transform="matrix(0.06172839506172839,0,0,0.06172839506172839,0,0)" xlink:href="#bh"/><use transform="matrix(0.06172839506172839,0,0,0.06172839506172839,6.172839506172839,0)" xlink:href="#bi"/></g><path fill="#333" d="M101-251c68 0 85 55 85 127S166 4 100 4C33 4 14-52 14-124c0-73 17-127 87-127zm-1 229c47 0 54-49 54-102s-4-102-53-102c-51 0-55 48-55 102 0 53 5 102 54 102" id="bj"/><path fill="#333" d="M33-261c38 41 65 92 65 168S71 34 33 75H2C39 34 66-17 66-93S39-220 2-261h31" id="bk"/><g id="U"><use transform="matrix(0.06172839506172839,0,0,0.06172839506172839,0,0)" xlink:href="#bj"/><use transform="matrix(0.06172839506172839,0,0,0.06172839506172839,12.345679012345679,0)" xlink:href="#bk"/></g></defs></g></svg>